<?xml version="1.0"?>
<svg xmlns="http://www.w3.org/2000/svg" xmlns:xlink="http://www.w3.org/1999/xlink" xmlns:svgjs="http://svgjs.com/svgjs" version="1.1" width="512" height="512" x="0" y="0" viewBox="0 0 512 512" style="enable-background:new 0 0 512 512" xml:space="preserve" class=""><g><g xmlns="http://www.w3.org/2000/svg" id="outline"><path d="M415.058,172.566l-25.951-11.08L368,133.339V24a8,8,0,0,0-8-8H208a8,8,0,0,0-8,8V51.8a48.868,48.868,0,0,0-21.1-11.308l-32.957-8.242a8,8,0,0,0-9.532,10.289l6.661,19.977A48.791,48.791,0,0,0,162.91,88,48.8,48.8,0,0,0,143.066,113.5l-6.661,19.977A8,8,0,0,0,144,144a7.875,7.875,0,0,0,1.942-.242l32.957-8.242A48.866,48.866,0,0,0,200,124.212v65.9L188.226,213.66A39.521,39.521,0,0,0,184,231.527V360.082a93.585,93.585,0,0,0,1.676,17.25L205.6,476.707A24.094,24.094,0,0,0,229.116,496H274a24,24,0,0,0,22.532-16h35.39a42.712,42.712,0,0,0,37.032-21.477A175.958,175.958,0,0,0,392,371.605a171.852,171.852,0,0,1,42.6-113.234,54.458,54.458,0,0,0-19.535-85.8Zm-39.976-3.12-22.873,68.621-51.243-46.561,57.492-44.224ZM352,132.066l-56,43.07V155.324l56-43.071Zm-56,94.969V208.652l50.68,46.008-4.719,14.119Zm-25.7,2.832L280,222.4v16.263Zm9.7-47.458v19.814l-80,61.538v-19.82ZM280,112v50.214L258.26,178.936,216,140.471V112Zm-64,50.1,29.386,26.737-10.947,8.421L216,180.472ZM280,96H246.521a22.447,22.447,0,0,0,0-16H280Zm-48-8a8,8,0,1,1-8-8A8.007,8.007,0,0,1,232,88ZM221.553,207.171l-19.527,15.02c.187-.433.271-.909.485-1.328l10.662-21.324ZM200,283.946l57.417-44.169,23.152,21,8.877,62.15-16.824,39.327a22.693,22.693,0,0,1-41.516.445L200,294.272Zm107.662,53.359L296,256.722v-8.081l40.409,36.71A166.261,166.261,0,0,1,307.657,337.305ZM352,32V92.06l-56,43.076V32Zm-72,0V64H216V32ZM158.245,57.448,156.194,51.3,175.011,56s0,0,0,.008a32.9,32.9,0,0,1,24,23.992h-9.485A32.937,32.937,0,0,1,158.245,57.448ZM175.015,120c0,.008,0,.008,0,.008l-18.817,4.7,2.051-6.148A32.939,32.939,0,0,1,189.534,96h9.485A32.9,32.9,0,0,1,175.015,120Zm107.109,351.1-.222,1.961A8,8,0,0,1,274,480H229.116a8.044,8.044,0,0,1-7.836-6.453l-19.9-99.266a77.231,77.231,0,0,1-1.383-14.2V332.933l16.539,36.383a38.691,38.691,0,0,0,70.79-.765l6.473-15.128.679,4.753a72.416,72.416,0,0,1,.148,19.726ZM422.535,247.847A187.837,187.837,0,0,0,376,371.605a159.932,159.932,0,0,1-20.95,79A26.663,26.663,0,0,1,331.917,464H299.254l11.23-83.993a88.082,88.082,0,0,0,0-21.816,182.028,182.028,0,0,0,41.243-68.184l37.109-111.24,19.907,8.5a38.45,38.45,0,0,1,13.789,60.578Z" fill="#ffffff" data-original="#000000" style="" class=""/></g></g></svg>
