<?xml version="1.0"?>
<svg xmlns="http://www.w3.org/2000/svg" xmlns:xlink="http://www.w3.org/1999/xlink" xmlns:svgjs="http://svgjs.com/svgjs" version="1.1" width="512" height="512" x="0" y="0" viewBox="0 0 512 512" style="enable-background:new 0 0 512 512" xml:space="preserve" class=""><g>
<g xmlns="http://www.w3.org/2000/svg">
	<g>
		<g>
			<path d="M512,213.333C512,129.594,399.552,64,256,64S0,129.594,0,213.333c0,21.682,7.668,42.104,21.333,60.53v163.47     C21.333,443.229,26.104,448,32,448s10.667-4.771,10.667-10.667V296.914c6.428,5.641,13.671,10.905,21.333,15.949V352     c0,5.896,4.771,10.667,10.667,10.667c5.896,0,10.667-4.771,10.667-10.667v-26.69C130.336,348.581,189.76,362.667,256,362.667     s125.664-14.086,170.667-37.357V352c0,5.896,4.771,10.667,10.667,10.667c5.896,0,10.667-4.771,10.667-10.667v-39.137     c7.663-5.044,14.905-10.309,21.333-15.949v140.419c0,5.896,4.771,10.667,10.667,10.667c5.896,0,10.667-4.771,10.667-10.667     V275.552c0-0.48-0.212-0.891-0.273-1.354C504.22,255.684,512,235.15,512,213.333z M256,341.333     c-129.396,0-234.667-57.417-234.667-128s105.271-128,234.667-128s234.667,57.417,234.667,128S385.396,341.333,256,341.333z" fill="#f78222" data-original="#000000" style="" class=""/>
			<path d="M256,106.667c-107.667,0-192,42.167-192,96c0,53.833,84.333,96,192,96s192-42.167,192-96     C448,148.833,363.667,106.667,256,106.667z M256,277.333c-102.083,0-170.667-38.604-170.667-74.667S153.917,128,256,128     s170.667,38.604,170.667,74.667S358.083,277.333,256,277.333z" fill="#f78222" data-original="#000000" style="" class=""/>
		</g>
	</g>
</g>
<g xmlns="http://www.w3.org/2000/svg">
</g>
<g xmlns="http://www.w3.org/2000/svg">
</g>
<g xmlns="http://www.w3.org/2000/svg">
</g>
<g xmlns="http://www.w3.org/2000/svg">
</g>
<g xmlns="http://www.w3.org/2000/svg">
</g>
<g xmlns="http://www.w3.org/2000/svg">
</g>
<g xmlns="http://www.w3.org/2000/svg">
</g>
<g xmlns="http://www.w3.org/2000/svg">
</g>
<g xmlns="http://www.w3.org/2000/svg">
</g>
<g xmlns="http://www.w3.org/2000/svg">
</g>
<g xmlns="http://www.w3.org/2000/svg">
</g>
<g xmlns="http://www.w3.org/2000/svg">
</g>
<g xmlns="http://www.w3.org/2000/svg">
</g>
<g xmlns="http://www.w3.org/2000/svg">
</g>
<g xmlns="http://www.w3.org/2000/svg">
</g>
</g></svg>
