<?xml version="1.0"?>
<svg xmlns="http://www.w3.org/2000/svg" xmlns:xlink="http://www.w3.org/1999/xlink" xmlns:svgjs="http://svgjs.com/svgjs" version="1.1" width="512" height="512" x="0" y="0" viewBox="0 0 164.938 164.938" style="enable-background:new 0 0 512 512" xml:space="preserve" class=""><g>
<g xmlns="http://www.w3.org/2000/svg">
	<g>
		<path d="M29.592,129.7c0.225-0.25,23.157-24.205,62.685-6.582c1.574,0.688,3.413-0.013,4.107-1.584    c0.706-1.57,0-3.428-1.571-4.116c-43.553-19.406-69.529,7.758-69.791,8.025c-1.172,1.261-1.105,3.239,0.161,4.409    c0.6,0.56,1.358,0.84,2.119,0.84C28.146,130.692,28.979,130.37,29.592,129.7z" fill="#f78222" data-original="#000000" style="" class=""/>
		<path d="M145.42,47.393l-0.95-1.546c-7.307-11.883-20.916-34.008-32.4-41.665c-6.972-4.637-37.747,1.44-48.64,6.373    c-2.686,1.218-5.809,2.98-6.202,5.87l-0.268,1.888c-0.688,4.695-1.397,9.542,2.78,11.904c2.387,1.37,7.295,2.046,11.429,2.381    c-2.792,3.921-2.363,5.718-2.195,6.43c0.332,1.382,1.315,2.436,2.701,2.898c4.366,1.452,19.297,3.124,31.621,1.653    c-2.162,7.651-6.57,27.097-1.82,44.411c-13.116-4.049-26.878,1.15-32.687,3.915C47.744,56.436,2.367,75.159,1.901,75.363    c-1.583,0.667-2.326,2.494-1.653,4.08c0.673,1.595,2.5,2.326,4.086,1.671c1.738-0.736,42.81-17.598,60.426,16.38    c0.393,0.755,1.078,1.315,1.894,1.553c0.819,0.244,1.702,0.134,2.438-0.298c0.18-0.104,18.045-10.267,32.711-4.141    c1.139,0.475,2.211,1.053,3.264,1.705c0.062,0.036,0.122,0.085,0.177,0.121c6.491,4.104,11.241,11.582,14.084,22.342    c0.378,1.395,1.633,2.319,3.015,2.319c0.256,0,0.523-0.036,0.792-0.115c1.668-0.433,2.66-2.149,2.21-3.806    c-3.16-11.947-8.562-20.441-16.009-25.478c-8.78-20.38,0.664-48.838,0.865-49.398c4.262-1.136,7.721-2.85,9.523-5.395    c1.011-1.403,0.67-3.34-0.719-4.345c-1.406-0.992-3.343-0.654-4.348,0.722c-3.885,5.426-28.144,5.633-38.675,3.355    c0.929-1.328,2.433-3.118,3.921-4.631c0.88-0.898,1.142-2.211,0.667-3.368c-0.466-1.16-1.583-1.927-2.829-1.945    c-5.77-0.107-13.107-0.856-14.916-1.873c-0.423-0.648,0.012-3.629,0.298-5.593l0.213-1.489c4.54-4.604,40.565-11.305,45.267-8.364    c10.364,6.89,23.498,28.254,30.543,39.738l0.956,1.559c27.03,43.882,16.526,67.093,16.423,67.3    c-0.402,0.816-0.427,1.767-0.067,2.606c2.021,4.72,2.217,8.806,0.597,12.167c-2.91,6.027-10.796,8.232-11.289,8.408    c-71.063,30.264-103.366,4.829-103.668,4.586c-1.154-0.957-2.816-0.963-3.97-0.025c-13.54,11.07-29.344,6.492-30.004,6.285    c-1.635-0.5-3.386,0.438-3.885,2.082c-0.505,1.645,0.417,3.373,2.064,3.885c0.767,0.231,18.155,5.383,33.868-5.955    c4.901,3.221,18.438,10.4,41.708,10.4c16.782,0,38.618-3.739,65.921-15.381c0.42-0.122,10.668-2.941,14.857-11.539    c2.302-4.744,2.313-10.163,0.036-16.143C164.862,113.436,171.037,88.981,145.42,47.393z" fill="#f78222" data-original="#000000" style="" class=""/>
	</g>
</g>
<g xmlns="http://www.w3.org/2000/svg">
</g>
<g xmlns="http://www.w3.org/2000/svg">
</g>
<g xmlns="http://www.w3.org/2000/svg">
</g>
<g xmlns="http://www.w3.org/2000/svg">
</g>
<g xmlns="http://www.w3.org/2000/svg">
</g>
<g xmlns="http://www.w3.org/2000/svg">
</g>
<g xmlns="http://www.w3.org/2000/svg">
</g>
<g xmlns="http://www.w3.org/2000/svg">
</g>
<g xmlns="http://www.w3.org/2000/svg">
</g>
<g xmlns="http://www.w3.org/2000/svg">
</g>
<g xmlns="http://www.w3.org/2000/svg">
</g>
<g xmlns="http://www.w3.org/2000/svg">
</g>
<g xmlns="http://www.w3.org/2000/svg">
</g>
<g xmlns="http://www.w3.org/2000/svg">
</g>
<g xmlns="http://www.w3.org/2000/svg">
</g>
</g></svg>
