<?xml version="1.0"?>
<svg xmlns="http://www.w3.org/2000/svg" xmlns:xlink="http://www.w3.org/1999/xlink" xmlns:svgjs="http://svgjs.com/svgjs" version="1.1" width="512" height="512" x="0" y="0" viewBox="0 0 480.002 480.002" style="enable-background:new 0 0 512 512" xml:space="preserve" class=""><g><path xmlns="http://www.w3.org/2000/svg" d="m479.942 399.028-37.241-304.149c-6.68-54.142-52.648-94.825-107.2-94.878h-191c-54.552.053-100.52 40.736-107.2 94.878l-37.241 304.149c-.526 4.291 2.452 8.223 6.725 8.88l68.908 10.6-11.5 51.758c-.958 4.313 1.761 8.586 6.075 9.545.569.126 1.15.19 1.733.19h336c4.418 0 8-3.581 8-8 0-.584-.064-1.166-.19-1.735l-11.5-51.758 68.908-10.6c4.272-.658 7.249-4.59 6.723-8.88zm-206.561-231.027h-15.712l28.952-152h15.712zm-66.76 0-28.952-152h15.712l28.952 152zm32 0-28.952-152h60.664l-28.952 152zm-30.62 16h64v16h-64zm-154.819-87.178c5.69-46.121 44.848-80.778 91.319-80.822h16.88l30.62 160.756v31.244c0 4.418 3.582 8 8 8h80c4.418 0 8-3.582 8-8v-31.244l30.62-160.756h16.88c46.471.044 85.629 34.701 91.319 80.822l30.529 249.341-66.832 10.282-6.516-29.323v-30.722l15.96-159.6-15.92-1.6-15.28 152.8h-72.76c0-3.911-2.827-7.248-6.685-7.891l-48-8c-.871-.146-1.759-.146-2.63 0l-48 8c-3.858.643-6.685 3.98-6.685 7.891h-72.76l-15.28-152.8-15.92 1.6 15.96 159.6v30.723l-6.516 29.323-66.832-10.283zm314.819 223.178h-72v-16h72zm-53.416 16 25.6 64h-14.767l-25.6-64zm-202.584-32h72v16h-72zm120 0h-32v-9.223l32-5.333zm-51.816 32-25.6 64h-14.768l25.6-64zm19.816-16h32v14.556l-32-5.333zm48-30.556 32 5.333v34.446l-32 5.333zm-231.116 103.828 3.823-31.221 65.3 10.046-6.834 30.757zm65.089 70.728 28.444-128h37.767l-27.612 69.029c-1.641 4.102.355 8.758 4.457 10.399.945.378 1.953.572 2.971.572h32c3.271 0 6.213-1.992 7.428-5.029l26.608-66.521 44.649 7.441c.871.145 1.759.145 2.63 0l44.649-7.441 26.608 66.521c1.215 3.037 4.157 5.029 7.428 5.029h32c4.418 0 8-3.582 8-8 0-1.018-.194-2.026-.572-2.971l-27.612-69.029h37.767l28.444 128zm318.856-61.146-6.829-30.754 65.3-10.046 3.823 31.221z" fill="#ffffff" data-original="#000000" style="" class=""/></g></svg>
